<?xml version="1.0" encoding="UTF-8"?>
<svg version="1.1" xmlns="http://www.w3.org/2000/svg" width="261" height="235">
<path d="M0 0 C5 5 5 5 7.25 7.5625 C12.93439972 12.6009452 19.72352036 14.66458983 27.1875 15.25 C35.16418999 14.72693836 42.81139521 12.17317961 49 7 C50.92062874 4.75225688 52.4213866 2.51591511 54 0 C54.680625 0.70125 55.36125 1.4025 56.0625 2.125 C63.63021101 9.62875852 70.14035857 14.34884843 81.1640625 15.05859375 C89.46780142 14.8870289 95.97041105 11.55722483 102 6 C104.41827455 3.31663436 104.41827455 3.31663436 106 1 C109 2 109 2 111.125 4.75 C116.92252397 11.92788682 125.15467443 14.02846424 134 15 C134.99 15 135.98 15 137 15 C139.43857753 32.94470818 139.18646318 51.17978903 139.18530273 69.25366211 C139.18748307 73.03315614 139.20570357 76.81235428 139.22460938 80.59179688 C139.36362712 140.99169853 139.36362712 140.99169853 129 156 C124.42723484 159.04851011 119.5013478 159.21620442 114.125 160 C113.09375 160.165 112.0625 160.33 111 160.5 C85.19039467 164.3325168 59.11489388 164.32494203 33.08935547 164.26074219 C28.43416087 164.2493486 23.779195 164.25613092 19.12400818 164.26761913 C-6.9951579 164.32235675 -33.1040734 164.0245383 -59 160.1875 C-60.67255859 159.97770508 -60.67255859 159.97770508 -62.37890625 159.76367188 C-67.15399794 159.07125485 -70.21764921 158.59019446 -74.1171875 155.6484375 C-79.05900176 148.69708881 -80.39859383 140.71932256 -81.6875 132.4375 C-81.80689941 131.67816162 -81.92629883 130.91882324 -82.04931641 130.13647461 C-84.47645873 112.94099671 -84.15817395 95.48099857 -84.13037109 78.16088867 C-84.12502437 74.20552717 -84.13033874 70.25027989 -84.13671875 66.29492188 C-84.14726408 30.82959474 -84.14726408 30.82959474 -82 15 C-81.31035156 14.97421875 -80.62070313 14.9484375 -79.91015625 14.921875 C-69.75389441 14.30887703 -62.13198597 11.40857269 -55 4 C-54.34 3.01 -53.68 2.02 -53 1 C-49.7126973 2.09576757 -49.37489216 2.58970032 -47.4375 5.25 C-42.4939972 11.16759203 -36.07359143 13.99304442 -28.5 15 C-20.49352977 15.39635991 -13.20963594 13.10570066 -7 8 C-4.56352127 5.41465292 -2.25292046 2.7461634 0 0 Z M-40.625 38.3125 C-43.63700991 42.09882377 -45.910309 46.21600595 -48.125 50.5 C-48.59413818 51.39585815 -48.59413818 51.39585815 -49.07275391 52.30981445 C-55.09143295 64.59703416 -58.071608 78.57911418 -61.59472656 91.74047852 C-62.25990767 94.22449872 -62.93039205 96.7070452 -63.6015625 99.18945312 C-64.03155449 100.78637638 -64.46125324 102.38337862 -64.890625 103.98046875 C-65.18746185 105.08046455 -65.18746185 105.08046455 -65.49029541 106.2026825 C-67.73477826 114.6045054 -69.68814742 123.02440762 -66.8125 131.5 C-63.93759572 135.46538521 -60.69986794 137.03981193 -56 138 C-45.6367943 138.96512297 -35.23677285 137.29720736 -26.5625 131.25 C-20.50123469 126.16058313 -15.81132929 119.78716779 -14 112 C-13.79504258 109.59972086 -13.8490805 107.41471202 -14 105 C-13.21238281 105.13277344 -12.42476562 105.26554687 -11.61328125 105.40234375 C-10.52402344 105.57894531 -9.43476562 105.75554687 -8.3125 105.9375 C-7.25675781 106.11152344 -6.20101562 106.28554687 -5.11328125 106.46484375 C5.54027698 107.97117002 16.25715733 108.19355572 27 108.1875 C27.66932556 108.18789276 28.33865112 108.18828552 29.02825928 108.18869019 C42.34636145 108.17938679 55.94718538 107.9093623 69 105 C68.9175 105.94875 68.835 106.8975 68.75 107.875 C68.81745487 116.23940396 73.11342553 123.118167 78.7265625 129.0234375 C87.10943503 136.31163939 97.27138611 138.45906031 108.08984375 138.25390625 C113.11125483 137.81579656 117.32447884 136.72957023 120.9375 133 C124.83607105 125.66151333 123.16153868 117.025438 121.1875 109.3125 C120.97520752 108.46091309 120.76291504 107.60932617 120.54418945 106.73193359 C119.71751884 103.48207267 118.85986021 100.24124306 118 97 C117.60405491 95.48782223 117.20822926 93.97561318 116.8125 92.46337891 C115.69470168 88.20841652 114.55034325 83.96116003 113.39175415 79.71713257 C112.92897289 78.0137839 112.47174708 76.30891431 112.02059937 74.60244751 C107.87407455 58.98615737 102.19822063 40.84495971 87.5625 32 C80.01197581 28.61090975 70.73638964 28.48863949 62.890625 30.9921875 C59.48711869 32.61338429 56.7531375 33.93033381 54.55297852 37.05517578 C50.45489987 40.17703621 46.15216161 39.61044525 41.13671875 39.6015625 C40.07137405 39.61013275 39.00602936 39.618703 37.90840149 39.62753296 C35.65486491 39.63901519 33.40125421 39.64002319 31.14770508 39.63134766 C27.70980232 39.62504091 24.27536587 39.67189133 20.83789062 39.72265625 C18.64583766 39.72720393 16.45377547 39.72860844 14.26171875 39.7265625 C12.7270118 39.75419174 12.7270118 39.75419174 11.16130066 39.78237915 C6.112221 39.71737213 2.90650876 39.45008109 -0.98828125 36.06982422 C-1.49633301 35.54089569 -2.00438477 35.01196716 -2.52783203 34.4670105 C-6.99335111 30.01713555 -12.82671573 29.5469934 -18.8125 29.5 C-27.8103255 29.58293882 -34.25837178 31.88889972 -40.625 38.3125 Z " fill="#25AEE9" transform="translate(103,71)"/>
<path d="M0 0 C1.61933939 -0.00135773 3.23867847 -0.00313974 4.85801697 -0.00531006 C9.22821015 -0.00984238 13.59837953 -0.00811162 17.96857309 -0.00493097 C22.56636013 -0.00238296 27.16414525 -0.00475192 31.76193237 -0.00631714 C39.4869625 -0.00813284 47.21198305 -0.00574942 54.93701172 -0.00097656 C63.82726155 0.00445332 72.7174884 0.00271025 81.60773766 -0.00280297 C89.275255 -0.00736508 96.94276548 -0.00796923 104.61028373 -0.0053643 C109.1741949 -0.00381699 113.73809532 -0.00356458 118.30200577 -0.00690079 C122.60143908 -0.00982436 126.90084329 -0.00772287 131.20027351 -0.00200653 C132.76377248 -0.00070218 134.32727396 -0.00103256 135.89077187 -0.0032692 C143.91902387 -0.01368024 151.93721164 0.09753876 159.95797729 0.46170044 C161.01506305 0.49702387 161.01506305 0.49702387 162.09350407 0.53306091 C168.83771906 0.89378925 172.16740383 3.39320161 176.69091797 8.12939453 C177.62033203 8.98919922 178.54974609 9.84900391 179.50732422 10.73486328 C200.02562386 29.92737527 200.02562386 29.92737527 200.88378906 39.21728516 C201.619774 62.67959299 201.619774 62.67959299 193.82373047 71.16064453 C188.36069398 76.34734065 182.99334849 79.22465046 175.37841797 79.56689453 C167.7468601 79.31564983 161.40564175 77.09739955 155.81591797 71.81689453 C152.81111911 68.53505748 150.70854989 65.0839531 148.69091797 61.12939453 C148.35060547 61.78166016 148.01029297 62.43392578 147.65966797 63.10595703 C143.59974053 70.42678364 139.41790884 74.76589909 131.94091797 78.50439453 C123.62809116 80.10301507 116.42574468 79.98575949 108.94873047 75.75439453 C103.6631149 71.95021447 99.73525783 66.85991662 96.69091797 61.12939453 C96.42279297 61.70947266 96.15466797 62.28955078 95.87841797 62.88720703 C92.12611116 70.36713442 87.59046239 73.83554487 80.50341797 78.00439453 C72.37871543 80.40184774 64.99545357 80.16338342 57.25341797 76.62939453 C50.46508338 72.8451446 47.01186028 67.98455067 43.69091797 61.12939453 C43.16304687 61.99951172 43.16304687 61.99951172 42.62451172 62.88720703 C37.78982056 70.53687503 32.63004366 76.49161974 23.69091797 79.12939453 C14.00647746 80.22651297 7.40857976 78.30474381 -0.55908203 72.94189453 C-4.02988594 69.39220872 -6.1289976 65.55708813 -8.30908203 61.12939453 C-8.83695313 61.99951172 -8.83695313 61.99951172 -9.37548828 62.88720703 C-13.9142702 70.06867398 -18.75567287 75.9843831 -27.08251953 78.65283203 C-34.76146114 80.29639497 -41.14989714 79.61087538 -48.01611328 75.74658203 C-53.9406536 71.56811578 -58.23953139 66.13339347 -60.30908203 59.12939453 C-61.87278471 49.2095616 -62.27424838 38.52102615 -56.49658203 30.00439453 C-54.82436621 27.99721216 -53.09319721 26.0378022 -51.30908203 24.12939453 C-50.41856689 23.10011481 -49.53187684 22.06751402 -48.64892578 21.03173828 C-31.51424427 1.30455344 -31.51424427 1.30455344 -19.69015884 0.32547379 C-13.13110659 -0.05490624 -6.56745722 -0.00931499 0 0 Z " fill="#25ACE8" transform="translate(60.30908203125,-0.12939453125)"/>
<path d="M0 0 C2.92989975 1.30620603 4.70103106 3.17770952 6.95483398 5.45678711 C7.87135742 6.3784668 8.78788086 7.30014648 9.73217773 8.24975586 C10.20510254 8.73299316 10.67802734 9.21623047 11.1652832 9.71411133 C12.59923405 11.17905605 14.04342519 12.63321391 15.48999023 14.08569336 C27.11108398 25.83754484 27.11108398 25.83754484 27.11108398 29.94116211 C22.16108398 29.61116211 17.21108398 29.28116211 12.11108398 28.94116211 C12.11108398 33.56116211 12.11108398 38.18116211 12.11108398 42.94116211 C3.86108398 42.94116211 -4.38891602 42.94116211 -12.88891602 42.94116211 C-12.88891602 38.32116211 -12.88891602 33.70116211 -12.88891602 28.94116211 C-17.83891602 29.27116211 -22.78891602 29.60116211 -27.88891602 29.94116211 C-26.36317024 23.83817901 -21.85878782 20.15370934 -17.59790039 15.72192383 C-16.41316359 14.48742808 -15.23521958 13.24639116 -14.06274414 12.00024414 C-12.20619713 10.02923261 -10.33169493 8.07702222 -8.45141602 6.12866211 C-7.86078369 5.49976074 -7.27015137 4.87085938 -6.66162109 4.22290039 C-2.4429082 -0.07609421 -2.4429082 -0.07609421 0 0 Z " fill="#26B0EA" transform="translate(130.888916015625,125.058837890625)"/>
<path d="M0 0 C2.12915039 0.21606445 2.12915039 0.21606445 4 1 C4.33 1.66 4.66 2.32 5 3 C4.28884033 3.05921631 3.57768066 3.11843262 2.8449707 3.17944336 C-0.87637952 4.25276852 -2.91263241 6.40924633 -5.51953125 9.12890625 C-6.02296555 9.63800034 -6.52639984 10.14709442 -7.04508972 10.6716156 C-8.64389465 12.29273211 -10.22819606 13.92722134 -11.8125 15.5625 C-12.89685713 16.66692883 -13.98213408 17.77045537 -15.06835938 18.87304688 C-17.72300912 21.57169448 -20.36474126 24.28241911 -23 27 C-23.66 26.67 -24.32 26.34 -25 26 C-21.37496968 21.9606805 -17.70656525 17.96465047 -14 14 C-13.39591309 13.35369629 -12.79182617 12.70739258 -12.16943359 12.04150391 C-10.31570481 10.07490171 -8.44250622 8.12896701 -6.5625 6.1875 C-5.97194824 5.5589209 -5.38139648 4.9303418 -4.77294922 4.28271484 C-3.06640625 2.54296875 -3.06640625 2.54296875 0 0 Z " fill="#2DCCF4" transform="translate(129,125)"/>
<path d="M0 0 C0 3 0 3 -1.25341797 4.62573242 C-2.11410889 5.4819519 -2.11410889 5.4819519 -2.9921875 6.35546875 C-3.61480469 6.97744141 -4.23742188 7.59941406 -4.87890625 8.24023438 C-5.53761719 8.88283203 -6.19632813 9.52542969 -6.875 10.1875 C-7.85146484 11.16879883 -7.85146484 11.16879883 -8.84765625 12.16992188 C-13.73313673 17 -13.73313673 17 -16 17 C-14.34139399 12.71872325 -11.21582144 9.95626884 -8 6.8125 C-7.4534375 6.26658203 -6.906875 5.72066406 -6.34375 5.15820312 C-2.28148496 1.14074248 -2.28148496 1.14074248 0 0 Z " fill="#2FCCF5" transform="translate(28,5)"/>
</svg>
